<mxfile host="65bd71144e">
    <diagram id="D5TpZ-i4_E0KO_N3Pmkl" name="ページ1">
        <mxGraphModel dx="1063" dy="790" grid="1" gridSize="10" guides="1" tooltips="1" connect="1" arrows="1" fold="1" page="1" pageScale="1" pageWidth="827" pageHeight="1169" background="none" math="0" shadow="0">
            <root>
                <mxCell id="0"/>
                <mxCell id="1" parent="0"/>
                <mxCell id="108" value="Application Table" style="swimlane;startSize=23;" parent="1" vertex="1">
                    <mxGeometry x="37" y="330" width="790" height="620" as="geometry"/>
                </mxCell>
                <mxCell id="109" value="Product" style="swimlane;childLayout=stackLayout;horizontal=1;startSize=30;horizontalStack=0;rounded=1;fontSize=14;fontStyle=0;strokeWidth=2;resizeParent=0;resizeLast=1;shadow=0;dashed=0;align=center;" parent="108" vertex="1">
                    <mxGeometry x="33" y="50" width="180" height="150" as="geometry"/>
                </mxCell>
                <mxCell id="110" value="+appId: string&lt;required&gt;&#10;+id: string&#10;+store: string&#10;--------------------&#10;+name: string&#10;+createdAt: string&#10;+updatedAt: string" style="align=left;strokeColor=none;fillColor=none;spacingLeft=4;fontSize=12;verticalAlign=top;resizable=0;rotatable=0;part=1;" parent="109" vertex="1">
                    <mxGeometry y="30" width="180" height="120" as="geometry"/>
                </mxCell>
                <mxCell id="111" value="Authority" style="swimlane;childLayout=stackLayout;horizontal=1;startSize=30;horizontalStack=0;rounded=1;fontSize=14;fontStyle=0;strokeWidth=2;resizeParent=0;resizeLast=1;shadow=0;dashed=0;align=center;" parent="108" vertex="1">
                    <mxGeometry x="272" y="60" width="180" height="130" as="geometry"/>
                </mxCell>
                <mxCell id="112" value="+appId: string&lt;required&gt;&#10;+id: string&#10;--------------------&#10;+name: string&#10;+createdAt: string&#10;+updatedAt: string" style="align=left;strokeColor=none;fillColor=none;spacingLeft=4;fontSize=12;verticalAlign=top;resizable=0;rotatable=0;part=1;" parent="111" vertex="1">
                    <mxGeometry y="30" width="180" height="100" as="geometry"/>
                </mxCell>
                <mxCell id="54" value="User" style="swimlane;childLayout=stackLayout;horizontal=1;startSize=30;horizontalStack=0;rounded=1;fontSize=14;fontStyle=0;strokeWidth=2;resizeParent=0;resizeLast=1;shadow=0;dashed=0;align=center;" parent="108" vertex="1">
                    <mxGeometry x="180" y="400" width="180" height="140" as="geometry"/>
                </mxCell>
                <mxCell id="55" value="+appId: string&lt;required&gt;&#10;+id: string&#10;-------------------&#10;+createdAt: string" style="align=left;strokeColor=none;fillColor=none;spacingLeft=4;fontSize=12;verticalAlign=top;resizable=0;rotatable=0;part=1;" parent="54" vertex="1">
                    <mxGeometry y="30" width="180" height="110" as="geometry"/>
                </mxCell>
                <mxCell id="132" value="Plan" style="swimlane;childLayout=stackLayout;horizontal=1;startSize=30;horizontalStack=0;rounded=1;fontSize=14;fontStyle=0;strokeWidth=2;resizeParent=0;resizeLast=1;shadow=0;dashed=0;align=center;" parent="108" vertex="1">
                    <mxGeometry x="510" y="50" width="190" height="150" as="geometry"/>
                </mxCell>
                <mxCell id="133" value="+appId: string&lt;required&gt;&#10;+id: string&#10;----------------&#10;+name: string&#10;+description: string&#10;+createdAt: string&#10;+updatedAt: string" style="align=left;strokeColor=none;fillColor=none;spacingLeft=4;fontSize=12;verticalAlign=top;resizable=0;rotatable=0;part=1;" parent="132" vertex="1">
                    <mxGeometry y="30" width="190" height="120" as="geometry"/>
                </mxCell>
                <mxCell id="88" value="Group" style="swimlane;childLayout=stackLayout;horizontal=1;startSize=30;horizontalStack=0;rounded=1;fontSize=14;fontStyle=0;strokeWidth=2;resizeParent=0;resizeLast=1;shadow=0;dashed=0;align=center;" parent="108" vertex="1">
                    <mxGeometry x="500" y="270" width="210" height="190" as="geometry"/>
                </mxCell>
                <mxCell id="89" value="+planId: string&lt;required&gt;&#10;+id: string&#10;--------------------&#10;+name: string&#10;+description: string&#10;+productIds: string[]&#10;+authorityId: string&#10;+authorityName: string&#10;+createdAt: string&#10;+updatedAt: string" style="align=left;strokeColor=none;fillColor=none;spacingLeft=4;fontSize=12;verticalAlign=top;resizable=0;rotatable=0;part=1;" parent="88" vertex="1">
                    <mxGeometry y="30" width="210" height="160" as="geometry"/>
                </mxCell>
                <mxCell id="135" value="" style="edgeStyle=orthogonalEdgeStyle;rounded=0;orthogonalLoop=1;jettySize=auto;html=1;endArrow=ERmany;endFill=0;" parent="108" target="88" edge="1">
                    <mxGeometry relative="1" as="geometry">
                        <mxPoint x="605" y="201" as="sourcePoint"/>
                        <mxPoint x="595" y="230" as="targetPoint"/>
                    </mxGeometry>
                </mxCell>
                <mxCell id="136" value="" style="edgeStyle=orthogonalEdgeStyle;rounded=0;orthogonalLoop=1;jettySize=auto;html=1;endArrow=ERmany;endFill=0;exitX=0.45;exitY=1.01;exitDx=0;exitDy=0;exitPerimeter=0;entryX=-0.005;entryY=0.4;entryDx=0;entryDy=0;entryPerimeter=0;" parent="108" source="112" target="89" edge="1">
                    <mxGeometry relative="1" as="geometry">
                        <mxPoint x="597.97" y="190.99" as="sourcePoint"/>
                        <mxPoint x="490" y="361" as="targetPoint"/>
                    </mxGeometry>
                </mxCell>
                <mxCell id="12" value="Management Table" style="swimlane;" parent="1" vertex="1">
                    <mxGeometry x="230" y="30" width="760" height="270" as="geometry"/>
                </mxCell>
                <mxCell id="13" value="App" style="swimlane;childLayout=stackLayout;horizontal=1;startSize=30;horizontalStack=0;rounded=1;fontSize=14;fontStyle=0;strokeWidth=2;resizeParent=0;resizeLast=1;shadow=0;dashed=0;align=center;" parent="12" vertex="1">
                    <mxGeometry x="550" y="60" width="160" height="150" as="geometry"/>
                </mxCell>
                <mxCell id="14" value="+id: string&lt;required&gt;&#10;------------------&#10;+name: string&#10;+createdAt: string&#10;+updatedAt: string" style="align=left;strokeColor=none;fillColor=none;spacingLeft=4;fontSize=12;verticalAlign=top;resizable=0;rotatable=0;part=1;" parent="13" vertex="1">
                    <mxGeometry y="30" width="160" height="120" as="geometry"/>
                </mxCell>
                <mxCell id="2" value="Customer" style="swimlane;childLayout=stackLayout;horizontal=1;startSize=30;horizontalStack=0;rounded=1;fontSize=14;fontStyle=0;strokeWidth=2;resizeParent=0;resizeLast=1;shadow=0;dashed=0;align=center;" parent="12" vertex="1">
                    <mxGeometry x="30" y="60" width="180" height="150" as="geometry"/>
                </mxCell>
                <mxCell id="3" value="+id: string&lt;required&gt;&#10;----------------&#10;+name: string&#10;+email: string&#10;+createdAt: string&#10;+updatedAt: string" style="align=left;strokeColor=none;fillColor=none;spacingLeft=4;fontSize=12;verticalAlign=top;resizable=0;rotatable=0;part=1;" parent="2" vertex="1">
                    <mxGeometry y="30" width="180" height="120" as="geometry"/>
                </mxCell>
                <mxCell id="4" value="CustomerApp" style="swimlane;childLayout=stackLayout;horizontal=1;startSize=30;horizontalStack=0;rounded=1;fontSize=14;fontStyle=0;strokeWidth=2;resizeParent=0;resizeLast=1;shadow=0;dashed=0;align=center;" parent="12" vertex="1">
                    <mxGeometry x="280" y="60" width="209" height="150" as="geometry"/>
                </mxCell>
                <mxCell id="5" value="+id: string&lt;required&gt;&#10;-----------------------&#10;+appId: string&#10;+userRole: string&#10;+createdAt: string&#10;+updatedAt: string" style="align=left;strokeColor=none;fillColor=none;spacingLeft=4;fontSize=12;verticalAlign=top;resizable=0;rotatable=0;part=1;" parent="4" vertex="1">
                    <mxGeometry y="30" width="209" height="120" as="geometry"/>
                </mxCell>
                <mxCell id="16" value="" style="edgeStyle=orthogonalEdgeStyle;rounded=0;orthogonalLoop=1;jettySize=auto;html=1;endArrow=ERmany;endFill=0;" parent="12" source="2" target="5" edge="1">
                    <mxGeometry relative="1" as="geometry"/>
                </mxCell>
                <mxCell id="17" value="" style="edgeStyle=orthogonalEdgeStyle;rounded=0;orthogonalLoop=1;jettySize=auto;html=1;endArrow=ERmany;endFill=0;" parent="12" source="14" target="5" edge="1">
                    <mxGeometry relative="1" as="geometry"/>
                </mxCell>
                <mxCell id="18" value="Receipt Table" style="swimlane;" parent="1" vertex="1">
                    <mxGeometry x="30" y="1000" width="473" height="299" as="geometry"/>
                </mxCell>
                <mxCell id="19" value="Receipt" style="swimlane;childLayout=stackLayout;horizontal=1;startSize=30;horizontalStack=0;rounded=1;fontSize=14;fontStyle=0;strokeWidth=2;resizeParent=0;resizeLast=1;shadow=0;dashed=0;align=center;" parent="18" vertex="1">
                    <mxGeometry x="114.5" y="59.25" width="214" height="180.5" as="geometry"/>
                </mxCell>
                <mxCell id="20" value="+appId: string&lt;required&gt;&#10;+productId: string&#10;+userId: string&#10;+id: string&#10;------------------&#10;+createdAt: string&#10;+updatedAt: string&#10;+receipt data..." style="align=left;strokeColor=none;fillColor=none;spacingLeft=4;fontSize=12;verticalAlign=top;resizable=0;rotatable=0;part=1;" parent="19" vertex="1">
                    <mxGeometry y="30" width="214" height="150.5" as="geometry"/>
                </mxCell>
                <mxCell id="128" value="" style="edgeStyle=orthogonalEdgeStyle;rounded=0;orthogonalLoop=1;jettySize=auto;html=1;endArrow=ERmany;endFill=0;exitX=0.5;exitY=1;exitDx=0;exitDy=0;entryX=1;entryY=0.5;entryDx=0;entryDy=0;" parent="1" source="14" target="20" edge="1">
                    <mxGeometry relative="1" as="geometry">
                        <mxPoint x="790" y="190" as="sourcePoint"/>
                        <mxPoint x="729" y="190" as="targetPoint"/>
                    </mxGeometry>
                </mxCell>
                <mxCell id="129" value="" style="edgeStyle=orthogonalEdgeStyle;rounded=0;orthogonalLoop=1;jettySize=auto;html=1;endArrow=ERmany;endFill=0;exitX=1;exitY=0.5;exitDx=0;exitDy=0;entryX=1;entryY=0.5;entryDx=0;entryDy=0;" parent="1" source="14" target="108" edge="1">
                    <mxGeometry relative="1" as="geometry">
                        <mxPoint x="790" y="190" as="sourcePoint"/>
                        <mxPoint x="729" y="190" as="targetPoint"/>
                        <Array as="points">
                            <mxPoint x="1020" y="180"/>
                            <mxPoint x="1020" y="640"/>
                        </Array>
                    </mxGeometry>
                </mxCell>
                <mxCell id="130" value="" style="edgeStyle=orthogonalEdgeStyle;rounded=0;orthogonalLoop=1;jettySize=auto;html=1;endArrow=ERmany;endFill=0;exitX=0.5;exitY=1;exitDx=0;exitDy=0;entryX=0;entryY=0.5;entryDx=0;entryDy=0;" parent="1" source="110" target="20" edge="1">
                    <mxGeometry relative="1" as="geometry">
                        <mxPoint x="790" y="190" as="sourcePoint"/>
                        <mxPoint x="729" y="190" as="targetPoint"/>
                    </mxGeometry>
                </mxCell>
                <mxCell id="131" value="" style="edgeStyle=orthogonalEdgeStyle;rounded=0;orthogonalLoop=1;jettySize=auto;html=1;endArrow=ERmany;endFill=0;exitX=0.5;exitY=1;exitDx=0;exitDy=0;entryX=0.5;entryY=0;entryDx=0;entryDy=0;" parent="1" source="55" target="18" edge="1">
                    <mxGeometry relative="1" as="geometry">
                        <mxPoint x="790" y="190" as="sourcePoint"/>
                        <mxPoint x="240" y="990" as="targetPoint"/>
                    </mxGeometry>
                </mxCell>
            </root>
        </mxGraphModel>
    </diagram>
</mxfile>